<mxfile host="app.diagrams.net" agent="Mozilla/5.0 (X11; Ubuntu; Linux x86_64; rv:134.0) Gecko/20100101 Firefox/134.0" version="26.0.10">
  <diagram name="Page-1" id="URs0xQJa8ty2CtSBE3o2">
    <mxGraphModel dx="681" dy="333" grid="0" gridSize="10" guides="1" tooltips="1" connect="1" arrows="1" fold="1" page="0" pageScale="1" pageWidth="827" pageHeight="1169" math="0" shadow="0">
      <root>
        <mxCell id="0" />
        <mxCell id="1" parent="0" />
        <mxCell id="pCeULkJlwhT8V0IKihhK-10" style="edgeStyle=none;curved=1;rounded=0;orthogonalLoop=1;jettySize=auto;html=1;exitX=0.5;exitY=1;exitDx=0;exitDy=0;entryX=0.5;entryY=0;entryDx=0;entryDy=0;fontSize=12;startSize=8;endSize=8;" edge="1" parent="1" source="pCeULkJlwhT8V0IKihhK-1" target="pCeULkJlwhT8V0IKihhK-2">
          <mxGeometry relative="1" as="geometry" />
        </mxCell>
        <mxCell id="pCeULkJlwhT8V0IKihhK-11" style="edgeStyle=none;curved=1;rounded=0;orthogonalLoop=1;jettySize=auto;html=1;exitX=0;exitY=0.5;exitDx=0;exitDy=0;entryX=1;entryY=0.5;entryDx=0;entryDy=0;fontSize=12;startSize=8;endSize=8;" edge="1" parent="1" source="pCeULkJlwhT8V0IKihhK-1" target="pCeULkJlwhT8V0IKihhK-4">
          <mxGeometry relative="1" as="geometry" />
        </mxCell>
        <mxCell id="pCeULkJlwhT8V0IKihhK-13" style="edgeStyle=none;curved=1;rounded=0;orthogonalLoop=1;jettySize=auto;html=1;exitX=0.5;exitY=0;exitDx=0;exitDy=0;entryX=0.5;entryY=1;entryDx=0;entryDy=0;fontSize=12;startSize=8;endSize=8;" edge="1" parent="1" source="pCeULkJlwhT8V0IKihhK-1" target="pCeULkJlwhT8V0IKihhK-6">
          <mxGeometry relative="1" as="geometry" />
        </mxCell>
        <mxCell id="pCeULkJlwhT8V0IKihhK-14" style="edgeStyle=none;curved=1;rounded=0;orthogonalLoop=1;jettySize=auto;html=1;exitX=1;exitY=0.5;exitDx=0;exitDy=0;entryX=0;entryY=0.5;entryDx=0;entryDy=0;fontSize=12;startSize=8;endSize=8;" edge="1" parent="1" source="pCeULkJlwhT8V0IKihhK-1" target="pCeULkJlwhT8V0IKihhK-5">
          <mxGeometry relative="1" as="geometry" />
        </mxCell>
        <mxCell id="pCeULkJlwhT8V0IKihhK-1" value="Activities" style="ellipse;whiteSpace=wrap;html=1;" vertex="1" parent="1">
          <mxGeometry x="140" y="160" width="120" height="80" as="geometry" />
        </mxCell>
        <mxCell id="pCeULkJlwhT8V0IKihhK-2" value="Semen quality analysis (SemenEval)" style="rounded=1;whiteSpace=wrap;html=1;fillColor=#f5f5f5;fontColor=#333333;strokeColor=#666666;" vertex="1" parent="1">
          <mxGeometry x="114.5" y="261" width="171" height="60" as="geometry" />
        </mxCell>
        <mxCell id="pCeULkJlwhT8V0IKihhK-4" value="multiplex ELISA kit (monitoring rodents)" style="rounded=1;whiteSpace=wrap;html=1;fillColor=#fff2cc;strokeColor=#d6b656;" vertex="1" parent="1">
          <mxGeometry x="-3" y="170" width="120" height="60" as="geometry" />
        </mxCell>
        <mxCell id="pCeULkJlwhT8V0IKihhK-5" value="Microbiota analysis (MICIV, Cowbiot)" style="rounded=1;whiteSpace=wrap;html=1;fillColor=#dae8fc;strokeColor=#6c8ebf;" vertex="1" parent="1">
          <mxGeometry x="283" y="170" width="120" height="60" as="geometry" />
        </mxCell>
        <mxCell id="pCeULkJlwhT8V0IKihhK-6" value="Genotyping (GDScan)" style="rounded=1;whiteSpace=wrap;html=1;fillColor=#d5e8d4;strokeColor=#82b366;" vertex="1" parent="1">
          <mxGeometry x="140" y="79" width="120" height="60" as="geometry" />
        </mxCell>
      </root>
    </mxGraphModel>
  </diagram>
</mxfile>
